<svg width="437" height="166" viewBox="0 0 437 166" fill="none" xmlns="http://www.w3.org/2000/svg">
<g filter="url(#filter0_d_209_4290)">
<path d="M162.483 13.9103H240.799V39.8238H170.902L180.069 68.0408H234.465V92.2268H187.927L198.592 125.051H242.527V150.388H206.824L198.592 125.051L187.927 92.2268L180.069 68.0408L170.902 39.8238L162.483 13.9103Z" fill="#D91663"/>
<path fill-rule="evenodd" clip-rule="evenodd" d="M162.782 9.30072H154.81L151.54 12.4579V20.1541L162.782 9.30072ZM151.54 31.4321V23.7359L166.492 9.30072H174.463L151.54 31.4321ZM151.54 42.7152V35.019L178.178 9.30072H186.15L151.54 42.7152ZM151.54 53.9907V46.2944L189.857 9.30072H192.131L194.83 12.1951L151.54 53.9907ZM151.54 65.2712V57.575L196.772 13.905L200.549 17.9549L182.672 35.2143H182.061V35.8044L151.54 65.2712ZM151.54 76.5466V68.8504L182.061 39.3835V47.0798L151.54 76.5466ZM151.54 87.8271V80.1309L182.061 50.6641V58.3603L151.54 87.8271ZM151.54 99.1075V91.4113L182.061 61.9445V63.4313H188.492L151.54 99.1075ZM151.54 110.386V102.689L192.202 63.4313H200.174L151.54 110.386ZM151.54 121.664V113.967L203.883 63.4313H211.855L186.804 87.6173H182.061V92.1967L151.54 121.664ZM151.54 133.299V125.603L182.061 96.1362V103.832L151.54 133.299ZM151.54 144.615V136.919L182.061 107.452V115.148L151.54 144.615ZM162.061 145.779H154.089L182.061 118.773V120.441H188.304L162.061 145.779ZM173.781 145.779H165.809L192.053 120.441H200.024L173.781 145.779ZM185.509 145.779H177.538L203.781 120.441H211.753L185.509 145.779ZM197.188 145.779H189.216L215.46 120.441H223.431L197.188 145.779ZM208.871 145.779H200.9L227.144 120.441H235.115L208.871 145.779ZM220.55 145.779H212.579L238.822 120.441H246.794L220.55 145.779ZM232.234 145.779H224.263L250.506 120.441H254.619V124.167L232.234 145.779ZM243.918 145.779H235.946L254.619 127.751V135.447L243.918 145.779ZM246.557 86.8387L245.75 87.6173H237.779L246.557 79.1425V86.8387ZM246.557 67.8188V75.5151L234.022 87.6173H226.05L246.557 67.8188ZM246.557 63.8275V64.1995L222.302 87.6173H214.33L239.381 63.4313H246.187L246.557 63.8275ZM227.655 63.4313H235.627L210.576 87.6173H202.605L227.655 63.4313ZM215.935 63.4313H223.906L198.856 87.6173H190.884L215.935 63.4313ZM217.689 35.2143L213.926 31.1792L209.747 35.2143H217.689ZM206.034 35.2143L211.982 29.472L208.205 25.422L198.063 35.2143H206.034ZM194.351 35.2143L206.264 23.7121L202.487 19.6622L186.379 35.2143H194.351Z" fill="#070B23"/>
<path d="M174.574 9.30072H252.89V35.2143H182.993L192.16 63.4313H246.556V87.6173H200.018L210.683 120.441H254.618V145.779H218.915L210.683 120.441L200.018 87.6173L192.16 63.4313L182.993 35.2143L174.574 9.30072Z" fill="#070B23"/>
<path fill-rule="evenodd" clip-rule="evenodd" d="M50.1906 13.9129H81.2869L132.538 150.391H100.29L91.6523 120.446H86.4696L64.0111 54.4965L78.43 96.8335H81.8626L65.1628 50.7649L64.0111 54.4965L50.1906 13.9129Z" fill="#D91663"/>
<path fill-rule="evenodd" clip-rule="evenodd" d="M82.9475 67.8129L104.185 47.3086L104.927 48.105L106.632 52.6426L84.9582 73.5678L82.9475 67.8129ZM81.9182 64.867L101.875 45.5987L98.0988 41.5487L79.9074 59.1121L81.9182 64.867ZM63.2099 75.2332L59.152 86.8472L11.4545 132.898L16.0689 120.747L63.2099 75.2332ZM78.9716 56.4338L96.1573 39.8414L92.3807 35.7915L76.9609 50.6789L78.9716 56.4338ZM69.1564 58.2141L65.0984 69.8281L18.2164 115.092L22.8309 102.94L69.1564 58.2141ZM76.0251 48.0006L74.375 43.2779L71.0449 52.8089L24.9784 97.2851L29.5929 85.1338L86.6652 30.0316L90.4418 34.0816L76.0251 48.0006ZM31.7418 79.4748L84.7212 28.3243L80.9446 24.2744L36.3563 67.3235L31.7418 79.4748ZM38.5053 61.6643L79.0031 22.5646L75.2265 18.5146L43.1197 49.513L38.5053 61.6643ZM45.2658 43.8618L73.2876 16.8073L69.511 12.7573L49.8802 31.7104L45.2658 43.8618ZM52.0293 26.0512L67.5695 11.0475L64.8677 8.15021H62.5989L56.6437 13.8998L52.0293 26.0512ZM58.7897 8.24876L58.8918 8.15021H58.8271L58.7897 8.24876ZM9.09237 139.118L58.8546 91.0741H66.826L11.3568 144.628H7L9.09237 139.118ZM23.077 144.628H15.1056L70.5747 91.0741H78.5461L54.0923 114.684H50.1893L47.8838 120.678L23.077 144.628ZM34.8025 144.628H26.8311L45.6664 126.443L40.9578 138.686L34.8025 144.628ZM89.269 114.684H81.2976L116.989 80.2243L119.11 85.8726L89.269 114.684ZM100.432 115.179L100.289 114.684H92.9737L120.096 88.4977L122.217 94.146L100.432 115.179ZM102.977 124.002L101.24 117.983L123.205 96.7765L125.326 102.425L102.977 124.002ZM105.521 132.822L103.784 126.802L126.313 105.052L128.434 110.7L105.521 132.822ZM108.067 141.649L106.331 135.629L129.423 113.334L131.544 118.983L108.067 141.649ZM116.662 144.628H108.927L108.875 144.45L132.531 121.611L134.652 127.26L116.662 144.628ZM115.99 77.5623L77.5407 114.684H69.5693L113.868 71.9139L115.99 77.5623ZM110.749 63.6073L112.87 69.2557L90.8723 90.4942L88.8615 84.7393L110.749 63.6073ZM107.629 55.2989L109.75 60.9473L87.9146 82.029L85.9038 76.2742L107.629 55.2989ZM82.3003 91.0741L57.8464 114.684H65.8178L90.2717 91.0741H82.3003ZM38.7419 144.447L38.6721 144.628H38.5541L38.7419 144.447Z" fill="#070B23"/>
<path fill-rule="evenodd" clip-rule="evenodd" d="M58.8281 8.15112H89.9243L141.176 144.629H108.928L100.29 114.685H95.107L87.0676 91.0769H90.5001L73.8002 45.0083L72.6493 48.7373L58.8281 8.15112ZM72.6493 48.7373L72.6485 48.7399L87.0674 91.0769H87.0676L72.6493 48.7373Z" fill="#070B23"/>
<path fill-rule="evenodd" clip-rule="evenodd" d="M336.627 150.32H362.531V124.983H328.881L336.627 150.32ZM322.803 105.103C323.83 104.497 324.86 103.894 325.889 103.291C342.011 93.8543 358.003 84.4928 360.804 62.7902C364.171 24.2566 325.004 5.40986 296.201 18.0922L303.029 40.4262C305.994 38.3984 309.814 37.2125 314.735 37.4525C338.345 38.6042 339.497 66.2453 321.645 78.9142C319.947 80.1191 318.026 81.3605 315.94 82.6567L322.803 105.103Z" fill="#D91663"/>
<path fill-rule="evenodd" clip-rule="evenodd" d="M332.493 73.693C332.883 73.4271 333.263 73.163 333.633 72.9008C336.599 70.7958 339.04 68.2776 340.941 65.5362L352.662 54.2199L356.439 58.2699L276.087 135.848C276.352 132.598 276.904 129.517 277.702 126.592L332.493 73.693ZM344.492 58.5263L350.723 52.51L346.947 48.4601L345.855 49.5138C345.973 52.4584 345.513 55.5272 344.492 58.5263ZM321.962 80.2785C306.946 89.3599 287.391 101.4 279.471 121.303L321.962 80.2785ZM279.007 144.307H276.047C275.937 142.701 275.894 141.132 275.912 139.598L358.38 59.9771L362.157 64.0271L279.007 144.307ZM291.058 144.307H283.087L312.471 115.937C311.616 116.909 310.798 117.919 310.023 118.969H317.302L291.058 144.307ZM302.779 144.307H294.807L321.051 118.969H329.022L302.779 144.307ZM314.504 144.307H306.533L332.776 118.969H340.748L314.504 144.307ZM326.227 144.307H318.256L344.499 118.969H352.471L326.227 144.307ZM337.955 144.307H329.984L356.228 118.969H364.199L337.955 144.307ZM349.631 144.307H341.66L367.904 118.969H374.519V120.279L349.631 144.307ZM361.315 144.307H353.344L374.519 123.863V131.559L361.315 144.307ZM372.994 144.307H365.022L374.519 135.139V142.835L372.994 144.307ZM283.708 38.2589C289.233 24.4262 298.912 15.6717 309.913 11.3616L310.697 12.2016L283.708 38.2589ZM279.735 53.3727C280.243 49.9141 280.956 46.6692 281.851 43.6328L312.638 13.9089L316.415 17.9589L279.735 53.3727ZM282.527 61.9594L278.926 61.9594C278.996 60.4152 279.102 58.9068 279.243 57.4342L318.359 19.6687L322.135 23.7186L282.527 61.9594ZM294.206 61.9595L286.234 61.9595L311.786 37.2901C308.42 41.1163 306.666 46.2279 305.758 50.8056L294.206 61.9595ZM330.425 31.8646L329.792 31.1857L329.283 31.678C329.67 31.7325 330.051 31.7947 330.425 31.8646ZM305.12 55.0068L297.918 61.9595L304.84 61.9595C304.84 61.9595 304.681 59.0404 305.12 55.0068ZM325.846 31.4111L327.851 29.4759L324.074 25.426L313.908 35.2409C316.846 32.8502 320.725 31.3356 325.846 31.4111ZM364.378 77.1379L354.704 86.4782C358.305 83.7099 361.599 80.6623 364.378 77.1379ZM342.737 94.4124L368.243 69.7869L364.466 65.737L318.644 109.977C324.452 105.136 331.175 101.201 337.877 97.2779C339.503 96.3262 341.127 95.3753 342.737 94.4124Z" fill="#070B23"/>
<path fill-rule="evenodd" clip-rule="evenodd" d="M348.623 144.308H374.522V118.97H340.876L348.623 144.308ZM334.798 99.0879C335.824 98.4823 336.852 97.8803 337.88 97.2785C354.001 87.8416 369.994 78.48 372.794 56.7775C376.161 18.2459 336.999 -0.600904 308.196 12.0775L315.024 34.4105C317.988 32.3845 321.807 31.1998 326.726 31.4398C350.336 32.5915 351.488 60.2326 333.636 72.9014C331.939 74.1055 330.019 75.346 327.935 76.6412L334.798 99.0879Z" fill="#070B23"/>
<path fill-rule="evenodd" clip-rule="evenodd" d="M409.395 125.373V48.4592H393.046L409.395 125.373ZM389.987 34.0637H408.819V12.1811H385.335L389.987 34.0637Z" fill="#D91663"/>
<path fill-rule="evenodd" clip-rule="evenodd" d="M421.037 88.4535V80.7573L394.547 108V115.696L421.037 88.4535ZM394.547 127.015V119.319L421.037 92.076V99.7722L394.547 127.015ZM394.547 138.334V130.638L421.037 103.395V111.091L394.547 138.334ZM399.432 144.629H394.547V141.956L421.037 114.713V122.409L399.432 144.629ZM410.437 144.629H402.954L421.037 126.032V133.728L410.437 144.629ZM421.037 137.308V144.629H413.918L421.037 137.308ZM394.547 104.059L421.037 76.8157V69.1195L394.547 96.3624V104.059ZM394.547 92.7853L421.037 65.5424V57.8461L394.547 85.089V92.7853ZM394.547 81.5044L421.037 54.2615V46.5653L394.547 73.8082V81.5044ZM394.547 70.2258L420.75 43.2781H413.266L394.547 62.5296V70.2258ZM420.496 13.286V20.9822L412.814 28.8826H405.331L420.496 13.286ZM415.639 7H420.496V9.70136L401.845 28.8826H394.547V28.6921L415.639 7ZM404.675 7H412.158L394.547 25.1124V17.4162L404.675 7ZM394.547 13.8314L401.189 7H394.547V13.8314ZM416.297 28.8826L420.496 24.5646V28.8826H416.297ZM402.3 43.2781H409.783L394.547 58.9474V51.2512L402.3 43.2781ZM398.817 43.2781H394.547V47.6688L398.817 43.2781Z" fill="#070B23"/>
<path fill-rule="evenodd" clip-rule="evenodd" d="M421.041 120.177V43.2781H404.695L421.041 120.177ZM401.635 28.8826H420.465V7H396.984L401.635 28.8826Z" fill="#070B23"/>
</g>
<defs>
<filter id="filter0_d_209_4290" x="0" y="0" width="436.041" height="165.391" filterUnits="userSpaceOnUse" color-interpolation-filters="sRGB">
<feFlood flood-opacity="0" result="BackgroundImageFix"/>
<feColorMatrix in="SourceAlpha" type="matrix" values="0 0 0 0 0 0 0 0 0 0 0 0 0 0 0 0 0 0 127 0" result="hardAlpha"/>
<feOffset dx="4" dy="4"/>
<feGaussianBlur stdDeviation="5.5"/>
<feComposite in2="hardAlpha" operator="out"/>
<feColorMatrix type="matrix" values="0 0 0 0 0 0 0 0 0 0 0 0 0 0 0 0 0 0 0.25 0"/>
<feBlend mode="normal" in2="BackgroundImageFix" result="effect1_dropShadow_209_4290"/>
<feBlend mode="normal" in="SourceGraphic" in2="effect1_dropShadow_209_4290" result="shape"/>
</filter>
</defs>
</svg>
