<svg width="32" height="32" viewBox="0 0 32 32" fill="none" xmlns="http://www.w3.org/2000/svg">
<path fill-rule="evenodd" clip-rule="evenodd" d="M0 5.99963C0 2.68593 2.68629 -0.000366211 6 -0.000366211H26C29.3137 -0.000366211 32 2.68593 32 5.99963V25.9996C32 29.3133 29.3137 31.9996 26 31.9996H6C2.68629 31.9996 0 29.3133 0 25.9996V5.99963ZM6.4 7.11963C6.4 6.01506 7.29543 5.11963 8.4 5.11963H12.7478C13.8524 5.11963 14.7478 6.01506 14.7478 7.11963V11.4675C14.7478 12.572 13.8524 13.4675 12.7478 13.4675H8.4C7.29543 13.4675 6.4 12.572 6.4 11.4675V7.11963ZM18 15.3046C19.6569 15.3046 21 16.6478 21 18.3046V24.8264C21 26.4832 19.6569 27.8264 18 27.8264H8.17424C5.9651 27.8264 4.17424 26.0355 4.17424 23.8264V18.3046C4.17424 16.6478 5.51739 15.3046 7.17424 15.3046H18Z" fill="white"/>
<path fill-rule="evenodd" clip-rule="evenodd" d="M18.0864 15.3031C19.7035 15.3486 21.0004 16.6738 21.0004 18.3019V24.8236C21.0004 26.4517 19.7035 27.7769 18.0864 27.8224V27.8236H23.8256C26.0347 27.8236 27.8256 26.0328 27.8256 23.8236V18.3019C27.8256 16.645 26.4824 15.3019 24.8256 15.3019H18.0864V15.3031Z" fill="#D91663"/>
<rect x="19.2002" y="6.39966" width="6.95652" height="6.95652" rx="2" fill="#D91663"/>
</svg>
