<svg width="32" height="32" viewBox="0 0 32 32" fill="none" xmlns="http://www.w3.org/2000/svg">
<path fill-rule="evenodd" clip-rule="evenodd" d="M6 0C2.68629 0 0 2.68629 0 6V26C0 29.3137 2.68629 32 6 32H26C29.3137 32 32 29.3137 32 26V6C32 2.68629 29.3137 0 26 0H6ZM19.7713 8.25169L18.4962 7.54332L17.4321 8.54093C15.1072 10.7205 13.5585 11.6747 12.1291 12.0406C10.7152 12.4024 9.12677 12.2647 6.51586 11.5677C5.44866 11.2828 4.35257 11.9169 4.06767 12.9841C3.78277 14.0513 4.41695 15.1474 5.48414 15.4323C8.27323 16.1769 10.6848 16.5392 13.1209 15.9156C15.2001 15.3835 17.0805 14.1895 19.1381 12.3928C20.2286 12.8553 21.3285 13.125 22.475 13.125C24.0945 13.125 25.5749 12.5875 27.029 11.715C27.9762 11.1467 28.2833 9.91817 27.715 8.97101C27.1467 8.02385 25.9182 7.71672 24.971 8.28501C23.9251 8.91255 23.1555 9.125 22.475 9.125C21.7812 9.125 20.9459 8.90423 19.7713 8.25169ZM17 17C18.1046 17 19 17.8954 19 19V22C19 23.1046 18.1046 24 17 24C15.8954 24 15 23.1046 15 22V19C15 17.8954 15.8954 17 17 17ZM26 19C26 17.8954 25.1046 17 24 17C22.8954 17 22 17.8954 22 19V22C22 23.1046 22.8954 24 24 24C25.1046 24 26 23.1046 26 22V19Z" fill="#D9D9D9" fill-opacity="0.5"/>
<line x1="9.5" y1="23.5" x2="11.5" y2="23.5" stroke="#D91663" stroke-opacity="0.5" stroke-width="3" stroke-linecap="round"/>
<path d="M27.4824 24.25H28.4824" stroke="#D91663" stroke-opacity="0.5" stroke-width="3" stroke-linecap="round"/>
</svg>
