<svg class="nav-icon" width="32" height="32" viewBox="0 0 32 32" fill="none" xmlns="http://www.w3.org/2000/svg">
<path fill-rule="evenodd" clip-rule="evenodd" d="M6 0C2.68629 0 0 2.68629 0 6V25.9956C0 29.3093 2.68629 31.9956 6 31.9956H26C29.3137 31.9956 32 29.3093 32 25.9956V6C32 2.68629 29.3137 0 26 0H6ZM7.5 6V4C7.5 3.17157 8.17157 2.5 9 2.5C9.82843 2.5 10.5 3.17157 10.5 4V6H21.5V4C21.5 3.17157 22.1716 2.5 23 2.5C23.8284 2.5 24.5 3.17157 24.5 4V6H25C26.1046 6 27 6.89543 27 8V14H5V8C5 6.89543 5.89543 6 7 6H7.5Z" fill="white" fill-opacity="0.5"/>
<rect x="5" y="18" width="10.24" height="7.67894" rx="1" fill="#D91663" fill-opacity="0.5"/>
</svg>
