<svg class="nav-icon" width="32" height="32" viewBox="0 0 32 32" fill="none" xmlns="http://www.w3.org/2000/svg">
<path fill-rule="evenodd" clip-rule="evenodd" d="M0 6C0 2.68629 2.68629 0 6 0H26C29.3137 0 32 2.68629 32 6V26C32 29.3137 29.3137 32 26 32H6C2.68629 32 0 29.3137 0 26V6ZM5 7C5 6.44772 5.44772 6 6 6H10C10.5523 6 11 6.44772 11 7V27C11 27.5523 10.5523 28 10 28H8C6.34315 28 5 26.6569 5 25V7ZM14 10C13.4477 10 13 10.4477 13 11V27C13 27.5523 13.4477 28 14 28H17C17.5523 28 18 27.5523 18 27V11C18 10.4477 17.5523 10 17 10H14Z" fill="white" fill-opacity="0.5"/>
<rect x="21" y="4" width="7" height="7" rx="2" fill="#D91663" fill-opacity="0.5"/>
</svg>
