<svg class="nav-icon" width="32" height="32" viewBox="0 0 32 32" fill="none" xmlns="http://www.w3.org/2000/svg">
<path fill-rule="evenodd" clip-rule="evenodd" d="M6 0C2.68629 0 0 2.68629 0 6V26C0 29.3137 2.68629 32 6 32H26C29.3137 32 32 29.3137 32 26V6C32 2.68629 29.3137 0 26 0H6ZM22.3704 5.96899C23.1325 5.16937 24.3984 5.13888 25.198 5.9009C25.9977 6.66292 26.0282 7.92889 25.2661 8.72851C22.6475 11.4764 19.4913 12.9933 16.1639 12.9933C12.843 12.9933 9.65124 11.4825 6.9486 8.757C6.17085 7.97268 6.17617 6.70636 6.96049 5.9286C7.74482 5.15084 9.01114 5.15617 9.7889 5.9405C11.9049 8.0744 14.1226 8.99328 16.1639 8.99328C18.1989 8.99328 20.3582 8.08052 22.3704 5.96899Z" fill="white" fill-opacity="0.5"/>
<rect x="19.3125" y="23.4424" width="7.72477" height="3.86238" rx="1" fill="#D91663" fill-opacity="0.5"/>
</svg>
